# xmcd
#
# Track frame offsets:
# 182
# 19262
# 37207
# 54690
# 73902
# 93630
# 116895
# 137822
# 153045
# 166837
#
# Disc length: 2393 seconds
#
#
# Revision: 2
# Processed by: cddbd v1.5PL3 Copyright (c) Steve Scherf et al.
# Submitted via: FreeRIP 2.60 
#
DISCID=8f09570a
DTITLE=Ruth Brown - What Color Is The Blues
DYEAR=1900
DGENRE=Blues
TTITLE0=I Want To Sleep With You
TTITLE1=What Color Is Blue
TTITLE2=Brown Sugar
TTITLE3=Lots More Of Me Leaving (Less Of Me Coming Home)
TTITLE4=Ain't No Piece Of Cake
TTITLE5=Stop Knocking
TTITLE6=Old Fashioned Goodtime Loving You
TTITLE7=Sugar Babe
TTITLE8=My Ol' Bed
TTITLE9=I Love My Man
EXTD=Golden Legends Series
EXTT0=
EXTT1=
EXTT2=
EXTT3=
EXTT4=
EXTT5=
EXTT6=
EXTT7=
EXTT8=
EXTT9=
PLAYORDER=
